<svg id="stats" xmlns="http://www.w3.org/2000/svg" width="1000" height="1000" viewBox="0 0 1000 1000"><title>stats</title><g id="days"><path d="M47.2,825.9a7.5,7.5,0,0,0,2.8-.4,4.4,4.4,0,0,0,1.8-.9,4.6,4.6,0,0,0,.9-1.5,4.1,4.1,0,0,0,.2-1.6,3.3,3.3,0,0,0-.6-1.9,6.7,6.7,0,0,0-1.5-1.4L48.7,817l-2.3-.9-3.2-1.3a14.9,14.9,0,0,1-3-1.8,11.3,11.3,0,0,1-2.2-2.7,8.6,8.6,0,0,1-.9-4.1,9.3,9.3,0,0,1,3.1-7.5c2.1-1.8,4.9-2.7,8.6-2.7a17.1,17.1,0,0,1,5.4.8,16.7,16.7,0,0,1,4,1.6l-2,5.2a12.6,12.6,0,0,0-3.1-1.3,11.2,11.2,0,0,0-3.8-.6q-5.4,0-5.4,3.9a2.9,2.9,0,0,0,.5,1.7,9.3,9.3,0,0,0,1.4,1.4l1.9,1,2.2.8,3.3,1.4a11.8,11.8,0,0,1,3.2,1.9,12.3,12.3,0,0,1,2.4,3.1,10.6,10.6,0,0,1,.9,4.7,9.2,9.2,0,0,1-3.1,7.4c-2.1,1.7-5.2,2.6-9.4,2.6a20.7,20.7,0,0,1-6.8-.9L36.6,829l2-5.5a22.9,22.9,0,0,0,3.5,1.6A15.2,15.2,0,0,0,47.2,825.9Z" fill="#89d4e5"/><path d="M86,830l-4.6,1a33.9,33.9,0,0,1-5.8.5,13.1,13.1,0,0,1-5.2-.9,8,8,0,0,1-3.2-2.5,9.7,9.7,0,0,1-1.6-3.9,22.8,22.8,0,0,1-.5-4.8V805h6.8v13.5a11.7,11.7,0,0,0,.9,5.3q.8,1.8,3.3,1.8l3.1-.3V805H86Z" fill="#89d4e5"/><path d="M186.5,796.8c.3.8.6,1.8,1,3s.8,2.5,1.2,3.9.9,2.8,1.4,4.2.8,2.8,1.2,4c.5-1.4.9-2.8,1.4-4.2s.9-2.9,1.4-4.2l1.2-3.8c.3-1.1.7-2.1,1-2.9h5.6c.2,3,.5,5.9.7,8.7s.5,5.6.6,8.4.3,5.5.4,8.3l.3,8.6h-6.2l.3-26.4-4.2,14.4h-4.9l-4-14.4.3,26.4h-6.3c.2-2.7.3-5.6.4-8.6s.3-6,.4-9,.3-5.8.5-8.6.5-5.4.7-7.8Z" fill="#89d4e5"/><path d="M231.1,817.9a16.9,16.9,0,0,1-.9,5.6,12.9,12.9,0,0,1-2.4,4.3,12.1,12.1,0,0,1-3.9,2.8,12.6,12.6,0,0,1-4.9,1,13.1,13.1,0,0,1-5-1,12.1,12.1,0,0,1-3.9-2.8,15.2,15.2,0,0,1-2.5-4.3,19.9,19.9,0,0,1-.8-5.6,16.9,16.9,0,0,1,.9-5.6,12.7,12.7,0,0,1,2.5-4.2,12.1,12.1,0,0,1,3.9-2.8,12.5,12.5,0,0,1,9.8,0,10.8,10.8,0,0,1,3.8,2.8,11.2,11.2,0,0,1,2.5,4.2A16.9,16.9,0,0,1,231.1,817.9Zm-17.5,0a11.3,11.3,0,0,0,1.3,5.6,4.1,4.1,0,0,0,4,2.2,4.3,4.3,0,0,0,3.9-2.2,10.3,10.3,0,0,0,1.4-5.6,11.6,11.6,0,0,0-1.2-5.6,4.9,4.9,0,0,0-8,0A10.6,10.6,0,0,0,213.6,817.9Z" fill="#89d4e5"/><path d="M347.1,796.8v5.6h-9v28.4h-6.8V802.4h-9v-5.6Z" fill="#89d4e5"/><path d="M372.5,830l-4.5,1a34.8,34.8,0,0,1-5.8.5,12.8,12.8,0,0,1-5.2-.9,7.6,7.6,0,0,1-3.3-2.5,11.4,11.4,0,0,1-1.6-3.9,23.3,23.3,0,0,1-.4-4.8V805h6.7v13.5a11.7,11.7,0,0,0,.9,5.3,3.4,3.4,0,0,0,3.3,1.8,16.3,16.3,0,0,0,3.1-.3V805h6.8Z" fill="#89d4e5"/><path d="M480.5,808.9a19.9,19.9,0,0,0,.7,2.5c.2,1.1.6,2.2.9,3.4s.7,2.6,1.2,4.1l1.2,4.4c0-1.9,0-4-.1-6.2l-.3-6.6-.3-6.9c-.1-2.4-.2-4.6-.2-6.8h6.8l-.3,8.6c-.1,3-.2,5.9-.4,8.8s-.3,5.8-.5,8.6-.4,5.5-.7,8h-5.6c-.8-2.3-1.6-4.7-2.4-7.4s-1.6-5.2-2.4-7.6c-.8,2.3-1.7,4.8-2.6,7.5s-1.6,5.2-2.4,7.5h-5.6c-.3-2.5-.5-5.2-.7-8s-.5-5.7-.6-8.6-.3-5.9-.4-8.8-.2-5.8-.3-8.6h6.3c-.1,2.2-.1,4.4-.2,6.7s0,4.6-.1,6.9,0,4.6-.1,6.7v6.2c.3-1.2.7-2.5,1.1-3.9l1.2-4.1c.4-1.4.7-2.6,1.1-3.7s.6-2.1.7-2.7Z" fill="#89d4e5"/><path d="M493.4,818.1a15.5,15.5,0,0,1,1.1-5.9,13.7,13.7,0,0,1,2.7-4.4,11.6,11.6,0,0,1,3.9-2.6,12,12,0,0,1,4.5-.9c3.8,0,6.7,1.2,8.7,3.4s3,5.6,3,9.9a7.1,7.1,0,0,1-.1,1.4v1.1H500.4a4.6,4.6,0,0,0,2.1,4,9.1,9.1,0,0,0,5.4,1.5,15.8,15.8,0,0,0,3.8-.5l3.2-.9.9,5.8a21.1,21.1,0,0,1-3.8,1,19.7,19.7,0,0,1-4.4.5,17.8,17.8,0,0,1-5.9-.9,13.1,13.1,0,0,1-4.5-2.5,11.5,11.5,0,0,1-2.8-4.2A14.7,14.7,0,0,1,493.4,818.1Zm17.3-2.6a14.9,14.9,0,0,0-.2-2.1,5.6,5.6,0,0,0-.9-1.7,4,4,0,0,0-1.6-1.2,5.2,5.2,0,0,0-2.3-.5,5.6,5.6,0,0,0-2.3.5,2.9,2.9,0,0,0-1.5,1.2,4.2,4.2,0,0,0-1,1.7,8,8,0,0,0-.5,2.1Z" fill="#89d4e5"/><path d="M633.6,796.8v5.6h-9v28.4h-6.8V802.4h-8.9v-5.6Z" fill="#89d4e5"/><path d="M638.4,830.8v-37l6.8-1.1v12.5l2-.5a7.5,7.5,0,0,1,2-.2,11.5,11.5,0,0,1,4.8.8,8.3,8.3,0,0,1,3.1,2.4,10.9,10.9,0,0,1,1.6,3.8,17.7,17.7,0,0,1,.5,4.8v14.5h-6.7V817.2a11.5,11.5,0,0,0-.9-5.3,3.2,3.2,0,0,0-3.1-1.6,5.7,5.7,0,0,0-1.8.3l-1.5.3v19.9Z" fill="#89d4e5"/><path d="M754.2,830.8v-34h20.9v5.6H761v8.3h12.3v5.6H761v14.5Z" fill="#89d4e5"/><path d="M802.3,811.9l-1.6-.3-1.8-.4h-6.1a12.7,12.7,0,0,0-2.8.6v19.1h-6.9V806.7a51.5,51.5,0,0,1,5.6-1.6,31.6,31.6,0,0,1,6.6-.6h1.6l2.1.2,2.4.3,2.1.5Z" fill="#89d4e5"/><path d="M906.8,825.9a7.5,7.5,0,0,0,2.8-.4,3.8,3.8,0,0,0,1.8-.9,4.6,4.6,0,0,0,.9-1.5,4.5,4.5,0,0,0,.3-1.6,2.8,2.8,0,0,0-.7-1.9,6.7,6.7,0,0,0-1.5-1.4l-2.1-1.2-2.3-.9-3.2-1.3a14.9,14.9,0,0,1-3-1.8,11.3,11.3,0,0,1-2.2-2.7,8.6,8.6,0,0,1-.9-4.1,9.6,9.6,0,0,1,3.1-7.5c2.1-1.8,4.9-2.7,8.6-2.7a17.1,17.1,0,0,1,5.4.8,16.7,16.7,0,0,1,4,1.6l-2,5.2a12.6,12.6,0,0,0-3.1-1.3,11.2,11.2,0,0,0-3.8-.6q-5.4,0-5.4,3.9a3.1,3.1,0,0,0,.5,1.7,9.3,9.3,0,0,0,1.4,1.4l2,1,2.1.8,3.3,1.4a10.2,10.2,0,0,1,5.6,5,10.6,10.6,0,0,1,.9,4.7,8.9,8.9,0,0,1-3.1,7.3c-2.1,1.8-5.2,2.7-9.4,2.7a21.1,21.1,0,0,1-6.8-.9l-3.8-1.7,2-5.5a20.4,20.4,0,0,0,3.6,1.6A14.1,14.1,0,0,0,906.8,825.9Z" fill="#89d4e5"/><path d="M945.6,830l-4.5,1a35.8,35.8,0,0,1-5.8.5,13.3,13.3,0,0,1-5.3-.9,8,8,0,0,1-3.2-2.5,9.7,9.7,0,0,1-1.6-3.9,23.3,23.3,0,0,1-.4-4.8V805h6.7v13.5a11.7,11.7,0,0,0,.9,5.3q.8,1.8,3.3,1.8l3.1-.3V805h6.8Z" fill="#89d4e5"/></g><rect id="mo-bar" x="176.3" y="701.8" width="57.7" height="57.71" fill="#fdd31b"/><rect id="we-bar" x="462.9" y="701.8" width="57.7" height="57.71" fill="#fdd31b"/><rect id="fr-bar" x="749.4" y="359.2" width="57.7" height="400.34" fill="#ee3354"/><line id="bottom-edge" x1="33" y1="759.5" x2="950.4" y2="759.5" fill="none" stroke="#89d4e5" stroke-miterlimit="10" stroke-width="7"/></svg>